<svg width="415" height="90" viewBox="0 0 415 90" fill="none" xmlns="http://www.w3.org/2000/svg">
<g clip-path="url(#clip0)">
<path d="M85.882 0.851807H6.13443C2.74648 0.851807 0 3.48393 0 6.73082V83.158C0 86.4049 2.74648 89.037 6.13443 89.037H85.882C89.27 89.037 92.0165 86.4049 92.0165 83.158V6.73082C92.0165 3.48393 89.27 0.851807 85.882 0.851807Z" fill="#0028FF"/>
<path fill-rule="evenodd" clip-rule="evenodd" d="M65.5269 53.6293C65.5269 53.6293 55.5352 53.6293 35.5518 53.6293V58.974H65.5269C65.5269 55.4108 65.5269 53.6293 65.5269 53.6293Z" fill="white"/>
<path fill-rule="evenodd" clip-rule="evenodd" d="M56.4651 64.9865C56.4651 64.9865 46.4733 64.9865 26.4899 64.9865V70.331H56.4651C56.4651 66.768 56.4651 64.9865 56.4651 64.9865Z" fill="white"/>
<path fill-rule="evenodd" clip-rule="evenodd" d="M53.6765 44.7537C53.6765 44.7537 53.6765 36.3551 53.6765 19.5579H48.0997V47.6168C51.8176 45.708 53.6765 44.7537 53.6765 44.7537Z" fill="white"/>
<path d="M128.021 57.5271C131.974 57.5271 134.841 56.106 136.67 54.0221L133.309 50.7065C132.024 52.3169 130.146 53.1695 128.07 53.1695C124.808 53.1695 121.793 50.659 121.694 46.6804H138.696C138.844 45.8278 138.894 44.5488 138.894 43.5067C138.894 35.7861 134.001 32.1864 128.021 32.1864C121.101 32.1864 116.554 36.8756 116.554 44.833C116.554 52.7906 121.002 57.5271 128.021 57.5271ZM133.754 42.7016H121.694C121.941 38.2018 124.808 36.5441 128.021 36.5441C130.739 36.5441 133.655 38.2018 133.754 42.7016ZM159.508 45.2593V40.5227H147.399V45.2593H159.508ZM178.342 57.5271C181.11 57.5271 183.236 56.6271 184.866 54.6378V56.9586H190.007V32.7548H184.866V47.2961C184.866 51.4643 182.493 52.8852 179.429 52.8852C176.563 52.8852 174.388 51.2748 174.388 47.2014V32.7548H169.248V47.2014C169.248 54.7799 173.054 57.5271 178.342 57.5271ZM203.898 56.9586L208.1 50.7065C208.643 49.9012 209.088 49.1434 209.384 48.5276C209.73 49.1434 210.126 49.9012 210.669 50.7065L214.871 56.9586H220.752L212.301 44.3593L220.061 32.7548H214.179L210.669 38.0124C210.126 38.8176 209.73 39.5754 209.384 40.1913C209.088 39.5754 208.643 38.865 208.1 38.0124L204.59 32.7548H198.708L206.419 44.3593L198.017 56.9586H203.898ZM230.541 57.5271C232.618 57.5271 234.299 55.9641 234.299 54.0694C234.299 52.1747 232.618 50.5643 230.541 50.5643C228.417 50.5643 226.835 52.1747 226.835 54.0694C226.835 55.9641 228.417 57.5271 230.541 57.5271ZM242.358 66.4793L247.498 64.2057V54.8745C248.734 56.343 250.612 57.5271 253.578 57.5271C259.755 57.5271 263.957 52.8379 263.957 44.8804C263.957 36.923 259.953 32.1864 253.578 32.1864C250.661 32.1864 248.833 33.2758 247.498 34.6967V32.7548H242.358V66.4793ZM252.835 52.8852C250.414 52.8852 248.635 51.5589 247.498 50.0906V39.5754C248.635 37.8229 250.464 36.8282 252.835 36.8282C256.642 36.8282 258.816 40.1913 258.816 44.8804C258.816 50.0433 256.691 52.8852 252.835 52.8852ZM277.848 56.9586V43.3648C277.848 38.3913 280.715 37.0176 282.989 37.0176C284.817 37.0176 286.053 37.5861 286.992 38.2018L287.733 33.6547C286.596 32.7074 285.164 32.1864 283.483 32.1864C280.962 32.1864 279.034 33.2285 277.848 35.6915V32.7548H272.708V56.9586H277.848ZM305.53 57.5271C312.597 57.5271 317.095 52.8379 317.095 44.8804C317.095 36.923 312.597 32.1864 305.53 32.1864C298.462 32.1864 294.014 36.923 294.014 44.8804C294.014 52.8379 298.462 57.5271 305.53 57.5271ZM305.53 52.8852C301.626 52.8852 299.155 49.8539 299.155 44.8804C299.155 39.907 301.626 36.8282 305.53 36.8282C309.484 36.8282 311.954 39.907 311.954 44.8804C311.954 49.8539 309.484 52.8852 305.53 52.8852Z" fill="#000248"/>
</g>
<defs>
<clipPath id="clip0">
<rect width="414.074" height="88.1852" fill="white" transform="translate(0 0.851807)"/>
</clipPath>
</defs>
</svg>
